<mxfile host="65bd71144e">
    <diagram id="pOqud3Csru5kn6OA6R6e" name="페이지-1">
        <mxGraphModel dx="1566" dy="2085" grid="1" gridSize="10" guides="1" tooltips="1" connect="1" arrows="0" fold="1" page="1" pageScale="1" pageWidth="827" pageHeight="1169" math="0" shadow="0">
            <root>
                <mxCell id="0"/>
                <mxCell id="1" parent="0"/>
                <mxCell id="18" style="edgeStyle=none;html=1;exitX=0.5;exitY=0;exitDx=0;exitDy=0;entryX=1;entryY=0.25;entryDx=0;entryDy=0;" parent="1" source="39" target="37" edge="1">
                    <mxGeometry relative="1" as="geometry">
                        <mxPoint x="655" y="-885" as="sourcePoint"/>
                        <mxPoint x="460" y="-795" as="targetPoint"/>
                        <Array as="points">
                            <mxPoint x="645" y="-800"/>
                        </Array>
                    </mxGeometry>
                </mxCell>
                <mxCell id="14" value="YES" style="edgeStyle=none;html=1;exitX=1;exitY=0.5;exitDx=0;exitDy=0;" parent="1" source="12" edge="1">
                    <mxGeometry relative="1" as="geometry">
                        <mxPoint x="560" y="-900" as="targetPoint"/>
                    </mxGeometry>
                </mxCell>
                <mxCell id="17" value="NO" style="edgeStyle=none;html=1;exitX=0.5;exitY=1;exitDx=0;exitDy=0;entryX=0.5;entryY=0;entryDx=0;entryDy=0;" parent="1" source="12" edge="1">
                    <mxGeometry relative="1" as="geometry">
                        <mxPoint x="370" y="-810" as="targetPoint"/>
                    </mxGeometry>
                </mxCell>
                <mxCell id="12" value="ENV 최초 비밀번호 'true',&lt;br&gt;최초 비밀번호 설정 전" style="rhombus;whiteSpace=wrap;html=1;fillColor=#4D4D4D;" parent="1" vertex="1">
                    <mxGeometry x="260" y="-940" width="220" height="80" as="geometry"/>
                </mxCell>
                <mxCell id="20" style="edgeStyle=none;html=1;exitX=0.5;exitY=1;exitDx=0;exitDy=0;entryX=0.5;entryY=0;entryDx=0;entryDy=0;" parent="1" target="19" edge="1">
                    <mxGeometry relative="1" as="geometry">
                        <mxPoint x="370" y="-780" as="sourcePoint"/>
                    </mxGeometry>
                </mxCell>
                <mxCell id="22" value="YES" style="edgeStyle=none;html=1;exitX=0.5;exitY=1;exitDx=0;exitDy=0;entryX=0.5;entryY=0;entryDx=0;entryDy=0;" parent="1" source="19" edge="1">
                    <mxGeometry relative="1" as="geometry">
                        <mxPoint x="370" y="-620" as="targetPoint"/>
                    </mxGeometry>
                </mxCell>
                <mxCell id="24" value="NO" style="edgeStyle=none;html=1;exitX=1;exitY=0.5;exitDx=0;exitDy=0;entryX=0;entryY=0.5;entryDx=0;entryDy=0;" parent="1" source="19" target="40" edge="1">
                    <mxGeometry relative="1" as="geometry">
                        <mxPoint x="560" y="-700" as="targetPoint"/>
                        <Array as="points">
                            <mxPoint x="520" y="-700"/>
                        </Array>
                    </mxGeometry>
                </mxCell>
                <mxCell id="19" value="인증/권한 확인" style="rhombus;whiteSpace=wrap;html=1;fillColor=#4D4D4D;" parent="1" vertex="1">
                    <mxGeometry x="290" y="-730" width="160" height="60" as="geometry"/>
                </mxCell>
                <mxCell id="35" style="edgeStyle=none;html=1;exitX=0.5;exitY=0;exitDx=0;exitDy=0;entryX=0.5;entryY=0;entryDx=0;entryDy=0;" parent="1" source="34" target="12" edge="1">
                    <mxGeometry relative="1" as="geometry"/>
                </mxCell>
                <UserObject label="로그인" tooltip="shared/api/member/login.js" id="34">
                    <mxCell style="shape=document;whiteSpace=wrap;html=1;boundedLbl=1;fillColor=#004C99;" parent="1" vertex="1">
                        <mxGeometry x="285" y="-1030" width="170" height="50" as="geometry"/>
                    </mxCell>
                </UserObject>
                <mxCell id="43" style="edgeStyle=none;html=1;exitX=0;exitY=0.5;exitDx=0;exitDy=0;entryX=1;entryY=0.5;entryDx=0;entryDy=0;" parent="1" source="37" target="42" edge="1">
                    <mxGeometry relative="1" as="geometry">
                        <mxPoint x="230" y="-785" as="targetPoint"/>
                    </mxGeometry>
                </mxCell>
                <mxCell id="37" value="페이지 진입" style="shape=document;whiteSpace=wrap;html=1;boundedLbl=1;" parent="1" vertex="1">
                    <mxGeometry x="285" y="-810" width="170" height="50" as="geometry"/>
                </mxCell>
                <mxCell id="44" style="edgeStyle=none;html=1;exitX=0;exitY=0.5;exitDx=0;exitDy=0;entryX=0.5;entryY=1;entryDx=0;entryDy=0;" parent="1" source="38" target="42" edge="1">
                    <mxGeometry relative="1" as="geometry">
                        <Array as="points">
                            <mxPoint x="150" y="-595"/>
                        </Array>
                    </mxGeometry>
                </mxCell>
                <mxCell id="38" value="페이지 이동" style="shape=document;whiteSpace=wrap;html=1;boundedLbl=1;" parent="1" vertex="1">
                    <mxGeometry x="285" y="-620" width="170" height="50" as="geometry"/>
                </mxCell>
                <UserObject label="최초 비밀번호 설정" tooltip="/shared/view/member/pass" id="39">
                    <mxCell style="shape=document;whiteSpace=wrap;html=1;boundedLbl=1;" parent="1" vertex="1">
                        <mxGeometry x="560" y="-920" width="170" height="50" as="geometry"/>
                    </mxCell>
                </UserObject>
                <mxCell id="47" style="edgeStyle=none;html=1;exitX=0.5;exitY=0;exitDx=0;exitDy=0;" parent="1" source="40" edge="1">
                    <mxGeometry relative="1" as="geometry">
                        <mxPoint x="645" y="-650" as="targetPoint"/>
                    </mxGeometry>
                </mxCell>
                <UserObject label="에러 페이지" tooltip="/shared/view/error" id="40">
                    <mxCell style="shape=document;whiteSpace=wrap;html=1;boundedLbl=1;" parent="1" vertex="1">
                        <mxGeometry x="560" y="-725" width="170" height="50" as="geometry"/>
                    </mxCell>
                </UserObject>
                <mxCell id="45" style="edgeStyle=none;html=1;exitX=0.5;exitY=0;exitDx=0;exitDy=0;entryX=0;entryY=0.5;entryDx=0;entryDy=0;" parent="1" source="42" target="34" edge="1">
                    <mxGeometry relative="1" as="geometry">
                        <Array as="points">
                            <mxPoint x="150" y="-1005"/>
                        </Array>
                    </mxGeometry>
                </mxCell>
                <UserObject label="로그아웃" tooltip="shared/api/member/login.js" id="42">
                    <mxCell style="rounded=0;whiteSpace=wrap;html=1;" parent="1" vertex="1">
                        <mxGeometry x="90" y="-805" width="120" height="40" as="geometry"/>
                    </mxCell>
                </UserObject>
                <mxCell id="49" value="YES" style="edgeStyle=none;html=1;exitX=1;exitY=0.5;exitDx=0;exitDy=0;entryX=1;entryY=0.75;entryDx=0;entryDy=0;" parent="1" source="46" target="37" edge="1">
                    <mxGeometry relative="1" as="geometry">
                        <Array as="points">
                            <mxPoint x="770" y="-625"/>
                            <mxPoint x="770" y="-772"/>
                        </Array>
                    </mxGeometry>
                </mxCell>
                <mxCell id="50" value="NO" style="edgeStyle=none;html=1;exitX=0.5;exitY=1;exitDx=0;exitDy=0;entryX=0;entryY=0.25;entryDx=0;entryDy=0;" parent="1" source="46" target="34" edge="1">
                    <mxGeometry relative="1" as="geometry">
                        <Array as="points">
                            <mxPoint x="645" y="-530"/>
                            <mxPoint x="70" y="-530"/>
                            <mxPoint x="70" y="-1020"/>
                        </Array>
                    </mxGeometry>
                </mxCell>
                <mxCell id="46" value="인증" style="rhombus;whiteSpace=wrap;html=1;fillColor=#4D4D4D;" parent="1" vertex="1">
                    <mxGeometry x="587.5" y="-650" width="115" height="50" as="geometry"/>
                </mxCell>
            </root>
        </mxGraphModel>
    </diagram>
</mxfile>